<?xml version="1.0" standalone="no"?>
<!DOCTYPE svg PUBLIC "-//W3C//DTD SVG 20010904//EN"
 "http://www.w3.org/TR/2001/REC-SVG-20010904/DTD/svg10.dtd">
<svg version="1.0" xmlns="http://www.w3.org/2000/svg"
 width="95.000000pt" height="95.000000pt" viewBox="0 0 95.000000 95.000000"
 preserveAspectRatio="xMidYMid meet">
<metadata>
Created by potrace 1.14, written by Peter Selinger 2001-2017
</metadata>
<g transform="translate(0.000000,95.000000) scale(0.100000,-0.100000)"
fill="#000000" stroke="none">
<path d="M345 786 c-57 -14 -145 -57 -164 -80 -8 -9 -26 -16 -42 -16 -52 0
-77 -17 -105 -71 -20 -41 -26 -65 -25 -118 1 -36 3 -79 6 -96 8 -43 49 -101
90 -128 37 -24 42 -36 23 -56 -15 -15 1 -29 73 -66 82 -42 143 -52 310 -51
137 2 159 4 200 24 25 12 56 33 69 47 20 22 21 25 6 31 -27 10 -18 28 39 78
64 55 80 82 90 151 5 28 14 60 22 72 12 18 12 29 2 63 -16 54 -57 87 -117 96
-30 4 -59 17 -80 35 -18 16 -45 35 -62 44 -81 42 -247 62 -335 41z"/>
</g>
</svg>
